<?xml version="1.0" standalone="no"?>
<!DOCTYPE svg PUBLIC "-//W3C//DTD SVG 20010904//EN"
 "http://www.w3.org/TR/2001/REC-SVG-20010904/DTD/svg10.dtd">
<svg version="1.0" xmlns="http://www.w3.org/2000/svg"
 width="718.000000pt" height="122.000000pt" viewBox="0 0 718.000000 122.000000"
 preserveAspectRatio="xMidYMid meet">

<g transform="translate(0.000000,122.000000) scale(0.100000,-0.100000)"
fill="#000000" stroke="none">
<path d="M760 918 c-85 -13 -152 -64 -192 -146 -31 -63 -33 -73 -33 -177 0
-100 2 -115 28 -167 102 -208 399 -211 504 -4 34 67 44 213 20 297 -43 146
-166 220 -327 197z m119 -143 c89 -46 97 -274 13 -349 -53 -47 -152 -23 -188
46 -36 70 -28 222 14 274 38 45 106 58 161 29z"/>
<path d="M40 595 l0 -315 70 0 70 0 0 110 0 109 128 3 127 3 3 57 3 57 -128 3
-128 3 -3 83 -3 82 146 0 145 0 0 60 0 60 -215 0 -215 0 0 -315z"/>
<path d="M1210 595 l0 -315 70 0 70 0 0 101 0 100 32 -3 c29 -3 38 -13 92
-100 l59 -98 79 0 c43 0 78 2 78 5 0 3 -29 52 -65 108 -64 101 -64 102 -44
117 74 53 100 102 100 185 0 76 -20 124 -68 164 -51 42 -96 51 -257 51 l-146
0 0 -315z m301 166 c21 -22 29 -39 29 -66 0 -27 -8 -44 -29 -66 -27 -26 -36
-29 -95 -29 l-66 0 0 95 0 95 66 0 c59 0 68 -3 95 -29z"/>
<path d="M1780 873 c0 -41 -16 -349 -25 -500 l-6 -93 69 0 c81 0 82 1 82 110
0 36 3 102 7 148 l6 83 65 -170 65 -171 32 0 c37 0 26 -21 123 239 l39 103 6
-77 c4 -43 7 -103 7 -134 0 -31 3 -73 6 -94 l7 -37 69 0 69 0 -6 93 c-9 150
-25 459 -25 500 l0 37 -74 0 -75 0 -60 -157 c-34 -87 -67 -171 -74 -187 -13
-28 -15 -24 -84 155 l-71 184 -76 3 -76 3 0 -38z"/>
<path d="M2661 888 c-29 -77 -211 -595 -211 -601 0 -4 33 -7 73 -7 l72 0 20
58 20 57 115 0 114 0 17 -55 16 -55 78 -3 c68 -3 77 -1 71 13 -3 9 -54 151
-112 316 l-107 299 -79 0 c-72 0 -79 -2 -87 -22z m127 -264 c18 -56 32 -104
32 -108 0 -3 -34 -6 -76 -6 -57 0 -75 3 -71 13 2 6 19 58 38 114 18 57 36 99
40 95 3 -4 20 -53 37 -108z"/>
<path d="M3080 850 l0 -60 80 0 80 0 0 -255 0 -255 75 0 75 0 0 255 0 255 80
0 80 0 0 60 0 60 -235 0 -235 0 0 -60z"/>
<path d="M3580 485 l0 -55 150 0 150 0 0 55 0 55 -150 0 -150 0 0 -55z"/>
</g>
</svg>
